<?xml version="1.0" standalone="no"?><!DOCTYPE svg PUBLIC "-//W3C//DTD SVG 1.1//EN" "http://www.w3.org/Graphics/SVG/1.1/DTD/svg11.dtd"><svg t="1578969695204" class="icon" viewBox="0 0 1024 1024" version="1.1" xmlns="http://www.w3.org/2000/svg" p-id="1724" xmlns:xlink="http://www.w3.org/1999/xlink" width="200" height="200"><defs><style type="text/css"></style></defs><path d="M780.19 446.27H446.68c-19.88 0-36 16.12-36 36v259.78c0 19.88 16.12 36 36 36h333.5c19.88 0 36-16.12 36-36V482.27c0.01-19.88-16.11-36-35.99-36z m-2.65 280.57c0 5.78-7.89 10.48-13.68 10.48H463c-5.79 0-12.08-4.69-12.08-10.48V497.49c0-5.78 6.29-10.48 12.08-10.48h300.86c5.78 0 13.68 4.69 13.68 10.48v229.35z m0 0" p-id="1725" fill="#ffffff"></path><path d="M776.79 246.57H244.31c-22.62 0-40.96 18.34-40.96 40.96v450.56c0 22.62 18.34 40.96 40.96 40.96h532.48c22.62 0 40.96-18.34 40.96-40.96V287.53c-0.01-22.62-18.34-40.96-40.96-40.96z m0 479.52c0 6.63-5.38 12-12 12H256.31c-6.63 0-12-5.38-12-12V299.53c0-6.63 5.38-12 12-12h508.48c6.62 0 12 5.38 12 12v426.56z m0 0" p-id="1726" fill="#ffffff"></path></svg>