<?xml version="1.0" encoding="utf-8"?>
<!-- Generated by IcoMoon.io -->
<!DOCTYPE svg PUBLIC "-//W3C//DTD SVG 1.1//EN" "http://www.w3.org/Graphics/SVG/1.1/DTD/svg11.dtd">
<svg version="1.1" xmlns="http://www.w3.org/2000/svg" xmlns:xlink="http://www.w3.org/1999/xlink" width="34" height="34" viewBox="14 8 12 24">
<path d="M12.0791137,21.6949304 C12.406739,21.7334745 12.7729086,21.7527466 13.1583502,21.7720187 C13.4281593,21.7912908 13.6594243,21.9647395 13.7365126,22.2345486 C13.8714171,22.6585344 14.0255938,23.063248 14.2375867,23.4294176 C14.3724912,23.6606825 14.3339471,23.9497637 14.1604983,24.1617566 C13.9099613,24.4508378 13.6594243,24.739919 13.4667035,24.9904561 C13.2547106,25.2409931 13.2739827,25.6264347 13.5052476,25.8576997 L14.6423003,26.9947524 C14.8735653,27.2260173 15.2590069,27.2452894 15.5095439,27.0332965 C15.760081,26.8213037 16.0298901,26.5900387 16.3382434,26.3395017 C16.5502363,26.1660529 16.8393175,26.1275088 17.0705824,26.2624133 C17.456024,26.4551341 17.8607377,26.6285829 18.2654514,26.7634874 C18.5159884,26.8405757 18.7087092,27.0718407 18.7279813,27.3416498 C18.7472534,27.7270914 18.7857976,28.093261 18.8050696,28.4208863 C18.8436138,28.7485117 19.1134229,28.9990487 19.4410483,28.9990487 L21.059903,28.9990487 C21.3875284,28.9990487 21.6766096,28.7485117 21.6958816,28.4208863 C21.7344258,28.093261 21.7536979,27.7270914 21.77297,27.3416498 C21.792242,27.0718407 21.9656908,26.8405757 22.2354999,26.7634874 C22.6594857,26.6285829 23.0641993,26.4744062 23.4303689,26.2624133 C23.6616338,26.1275088 23.950715,26.1660529 24.1627079,26.3395017 C24.4517891,26.5900387 24.7408703,26.8405757 24.9914073,27.0332965 C25.2419444,27.2452894 25.627386,27.2260173 25.8586509,26.9947524 L26.9957037,25.8576997 C27.2269686,25.6264347 27.2462407,25.2409931 27.0342478,24.9904561 C26.822255,24.739919 26.59099,24.4701099 26.3404529,24.1617566 C26.1670042,23.9497637 26.1284601,23.6606825 26.2633646,23.4294176 C26.4560854,23.043976 26.6295341,22.6392623 26.7644387,22.2345486 C26.841527,21.9840116 27.072792,21.7912908 27.3426011,21.7720187 C27.7280427,21.7527466 28.0942122,21.7142024 28.4218376,21.6949304 C28.749463,21.6563862 29,21.3865771 29,21.0589517 L29,19.440097 C29,19.1124716 28.749463,18.8233904 28.4218376,18.8041184 C28.0942122,18.7655742 27.7280427,18.7463021 27.3426011,18.72703 C27.072792,18.707758 26.841527,18.5343092 26.7644387,18.2645001 C26.6295341,17.8405143 26.4753575,17.4358007 26.2633646,17.0696311 C26.1284601,16.8383662 26.1670042,16.549285 26.3404529,16.3372921 C26.59099,16.0482109 26.841527,15.7591297 27.0342478,15.5085927 C27.2462407,15.2580556 27.2269686,14.872614 26.9957037,14.6413491 L25.8586509,13.5042963 C25.627386,13.2730314 25.2419444,13.2537593 24.9914073,13.4657522 C24.7408703,13.677745 24.4710612,13.90901 24.1627079,14.1595471 C23.950715,14.3329958 23.6616338,14.3715399 23.4303689,14.2366354 C23.0449273,14.0439146 22.6402136,13.8704659 22.2354999,13.7355613 C21.9849628,13.658473 21.792242,13.427208 21.77297,13.1573989 C21.7536979,12.7719573 21.7151537,12.4057878 21.6958816,12.0781624 C21.6573375,11.750537 21.3875284,11.5 21.059903,11.5 L19.4410483,11.5 C19.1134229,11.5 18.8243417,11.750537 18.8050696,12.0781624 C18.7665255,12.4057878 18.7472534,12.7719573 18.7279813,13.1573989 C18.7087092,13.427208 18.5352605,13.658473 18.2654514,13.7355613 C17.8414656,13.8704659 17.436752,14.0246425 17.0705824,14.2366354 C16.8393175,14.3715399 16.5502363,14.3329958 16.3382434,14.1595471 C16.0491622,13.90901 15.760081,13.658473 15.5095439,13.4657522 C15.2590069,13.2537593 14.8735653,13.2730314 14.6423003,13.5042963 L13.5052476,14.6413491 C13.2739827,14.872614 13.2547106,15.2580556 13.4667035,15.5085927 C13.6786963,15.7591297 13.9099613,16.0289388 14.1604983,16.3372921 C14.3339471,16.549285 14.3724912,16.8383662 14.2375867,17.0696311 C14.0448659,17.4550727 13.8714171,17.8597864 13.7365126,18.2645001 C13.6594243,18.5150372 13.4281593,18.707758 13.1583502,18.72703 C12.7729086,18.7463021 12.406739,18.7848463 12.0791137,18.8041184 C11.7514883,18.8426625 11.5009513,19.1124716 11.5009513,19.440097 L11.5009513,21.0589517 C11.4816792,21.3865771 11.7322162,21.6756583 12.0791137,21.6949304 L12.0791137,21.6949304 Z M20.2504756,15.8747622 C22.6787577,15.8747622 24.6252378,17.8405143 24.6252378,20.2495244 C24.6252378,22.6778064 22.6594857,24.6242865 20.2504756,24.6242865 C17.8414656,24.6242865 15.8757135,22.6778064 15.8757135,20.2495244 C15.8757135,17.8212423 17.8221936,15.8747622 20.2504756,15.8747622 L20.2504756,15.8747622 Z"></path>
</svg>
